<svg xmlns="http://www.w3.org/2000/svg" width="1000" height="618" viewBox="0 0 1000 618">
  <defs>
    <style>
      .ae353198-0491-4e62-9f48-77f9238ad05b, .e5f318d5-5423-415a-b63d-afe3b2493ace {
        fill: none;
        stroke-miterlimit: 10;
        stroke-width: 0.2px;
      }

      .ae353198-0491-4e62-9f48-77f9238ad05b {
        stroke: #f0f;
      }

      .e5f318d5-5423-415a-b63d-afe3b2493ace {
        stroke: red;
      }
    </style>
  </defs>
  <title>05 - Golden Section</title>
  <g id="a25bec8e-7504-42b9-aa11-9dadfef80577" data-name="Golden Section">
    <g id="bd704525-3923-4896-991c-d1e35f68547c" data-name="Divisions">
      <line class="ae353198-0491-4e62-9f48-77f9238ad05b" x1="382" x2="382" y2="618"/>
      <line class="ae353198-0491-4e62-9f48-77f9238ad05b" y1="236.08" x2="382" y2="236.08"/>
      <line class="ae353198-0491-4e62-9f48-77f9238ad05b" x1="236.03" x2="236.03" y2="236.08"/>
      <line class="ae353198-0491-4e62-9f48-77f9238ad05b" x1="236.03" y1="145.87" x2="382" y2="145.87"/>
      <line class="ae353198-0491-4e62-9f48-77f9238ad05b" x1="291.74" y1="145.87" x2="291.74" y2="236.08"/>
      <line class="ae353198-0491-4e62-9f48-77f9238ad05b" x1="236.03" y1="180.32" x2="291.74" y2="180.32"/>
      <line class="ae353198-0491-4e62-9f48-77f9238ad05b" x1="270.46" y1="145.87" x2="270.46" y2="180.32"/>
      <line class="ae353198-0491-4e62-9f48-77f9238ad05b" x1="291.74" y1="167.14" x2="270.46" y2="167.14"/>
      <line class="ae353198-0491-4e62-9f48-77f9238ad05b" x1="278.58" y1="167.14" x2="278.58" y2="180.32"/>
      <line class="ae353198-0491-4e62-9f48-77f9238ad05b" x1="270.46" y1="172.16" x2="278.58" y2="172.16"/>
    </g>
    <path id="a389c230-48b8-4478-b67b-f9747546c5e5" data-name="Spiral" class="e5f318d5-5423-415a-b63d-afe3b2493ace" d="M275.34,167.16a5,5,0,0,0-4.88,5h0a8.14,8.14,0,0,0,8.12,8.15,13.17,13.17,0,0,0,13.16-13.18h0a21.27,21.27,0,0,0-21.28-21.27A34.45,34.45,0,0,0,236,180.34h0a55.75,55.75,0,0,0,55.74,55.75h0A90.22,90.22,0,0,0,382,145.89,145.89,145.89,0,0,0,236.07.05l0,0C105.67,0,0,105.7,0,236.09,0,447,171,618,382,618c341.31,0,618-276.68,618-618"/>
  </g>
</svg>
