<svg xmlns="http://www.w3.org/2000/svg" width="1000" height="618" viewBox="0 0 1000 618">
  <defs>
    <style>
      .a5408c27-0fb5-44c1-9b89-39a9856c43b5 {
        fill: none;
        stroke: #f0a;
        stroke-miterlimit: 10;
        stroke-width: 0.2px;
      }

      .a1f02c60-b965-462b-adda-c2af6de291f1, .e2b72de8-a7a1-4d0e-8ef6-cae0f1d99df5, .ea827e6e-9c24-4080-adcc-40169d2fe62c, .ea97f141-18fa-4cef-b5df-bfe5c165b6cb {
        fill: #f0f;
      }

      .ea827e6e-9c24-4080-adcc-40169d2fe62c {
        opacity: 0.08;
      }

      .ea97f141-18fa-4cef-b5df-bfe5c165b6cb {
        opacity: 0.16;
      }

      .e2b72de8-a7a1-4d0e-8ef6-cae0f1d99df5 {
        opacity: 0.24;
      }

      .a1f02c60-b965-462b-adda-c2af6de291f1 {
        opacity: 0.1;
      }
    </style>
  </defs>
  <title>07 - Fibonacci Proportions</title>
  <g id="ef51b3af-fc41-4ec0-9686-655763a50e06" data-name="Fibonacci Proportions">
    <g id="bebc6c61-f9a2-47bb-ae74-24e0a0519ed6" data-name="55x34 Grid">
      <line class="a5408c27-0fb5-44c1-9b89-39a9856c43b5" x1="18.18" x2="18.18" y2="618"/>
      <line class="a5408c27-0fb5-44c1-9b89-39a9856c43b5" x1="36.36" x2="36.36" y2="618"/>
      <line class="a5408c27-0fb5-44c1-9b89-39a9856c43b5" x1="54.55" x2="54.55" y2="618"/>
      <line class="a5408c27-0fb5-44c1-9b89-39a9856c43b5" x1="72.73" x2="72.73" y2="618"/>
      <line class="a5408c27-0fb5-44c1-9b89-39a9856c43b5" x1="90.91" x2="90.91" y2="618"/>
      <line class="a5408c27-0fb5-44c1-9b89-39a9856c43b5" x1="109.09" x2="109.09" y2="618"/>
      <line class="a5408c27-0fb5-44c1-9b89-39a9856c43b5" x1="127.16" x2="127.16" y2="618"/>
      <line class="a5408c27-0fb5-44c1-9b89-39a9856c43b5" x1="145.35" x2="145.35" y2="618"/>
      <line class="a5408c27-0fb5-44c1-9b89-39a9856c43b5" x1="163.53" x2="163.53" y2="618"/>
      <line class="a5408c27-0fb5-44c1-9b89-39a9856c43b5" x1="181.71" x2="181.71" y2="618"/>
      <line class="a5408c27-0fb5-44c1-9b89-39a9856c43b5" x1="199.89" x2="199.89" y2="618"/>
      <line class="a5408c27-0fb5-44c1-9b89-39a9856c43b5" x1="218.07" x2="218.07" y2="618"/>
      <line class="a5408c27-0fb5-44c1-9b89-39a9856c43b5" x1="236.36" x2="236.36" y2="618"/>
      <line class="a5408c27-0fb5-44c1-9b89-39a9856c43b5" x1="254.55" x2="254.55" y2="618"/>
      <line class="a5408c27-0fb5-44c1-9b89-39a9856c43b5" x1="272.73" x2="272.73" y2="618"/>
      <line class="a5408c27-0fb5-44c1-9b89-39a9856c43b5" x1="290.91" x2="290.91" y2="618"/>
      <line class="a5408c27-0fb5-44c1-9b89-39a9856c43b5" x1="309.09" x2="309.09" y2="618"/>
      <line class="a5408c27-0fb5-44c1-9b89-39a9856c43b5" x1="327.27" x2="327.27" y2="618"/>
      <line class="a5408c27-0fb5-44c1-9b89-39a9856c43b5" x1="345.35" x2="345.35" y2="618"/>
      <line class="a5408c27-0fb5-44c1-9b89-39a9856c43b5" x1="363.53" x2="363.53" y2="618"/>
      <line class="a5408c27-0fb5-44c1-9b89-39a9856c43b5" x1="381.71" x2="381.71" y2="618"/>
      <line class="a5408c27-0fb5-44c1-9b89-39a9856c43b5" x1="399.89" x2="399.89" y2="618"/>
      <line class="a5408c27-0fb5-44c1-9b89-39a9856c43b5" x1="418.07" x2="418.07" y2="618"/>
      <line class="a5408c27-0fb5-44c1-9b89-39a9856c43b5" x1="436.25" x2="436.25" y2="618"/>
      <line class="a5408c27-0fb5-44c1-9b89-39a9856c43b5" x1="454.6" x2="454.6" y2="618"/>
      <line class="a5408c27-0fb5-44c1-9b89-39a9856c43b5" x1="472.78" x2="472.78" y2="618"/>
      <line class="a5408c27-0fb5-44c1-9b89-39a9856c43b5" x1="490.96" x2="490.96" y2="618"/>
      <line class="a5408c27-0fb5-44c1-9b89-39a9856c43b5" x1="509.15" x2="509.15" y2="618"/>
      <line class="a5408c27-0fb5-44c1-9b89-39a9856c43b5" x1="527.33" x2="527.33" y2="618"/>
      <line class="a5408c27-0fb5-44c1-9b89-39a9856c43b5" x1="545.51" x2="545.51" y2="618"/>
      <line class="a5408c27-0fb5-44c1-9b89-39a9856c43b5" x1="563.58" x2="563.58" y2="618"/>
      <line class="a5408c27-0fb5-44c1-9b89-39a9856c43b5" x1="581.76" x2="581.76" y2="618"/>
      <line class="a5408c27-0fb5-44c1-9b89-39a9856c43b5" x1="599.95" x2="599.95" y2="618"/>
      <line class="a5408c27-0fb5-44c1-9b89-39a9856c43b5" x1="618.13" x2="618.13" y2="618"/>
      <line class="a5408c27-0fb5-44c1-9b89-39a9856c43b5" x1="636.31" x2="636.31" y2="618"/>
      <line class="a5408c27-0fb5-44c1-9b89-39a9856c43b5" x1="654.49" x2="654.49" y2="618"/>
      <line class="a5408c27-0fb5-44c1-9b89-39a9856c43b5" x1="672.78" x2="672.78" y2="618"/>
      <line class="a5408c27-0fb5-44c1-9b89-39a9856c43b5" x1="690.96" x2="690.96" y2="618"/>
      <line class="a5408c27-0fb5-44c1-9b89-39a9856c43b5" x1="709.15" x2="709.15" y2="618"/>
      <line class="a5408c27-0fb5-44c1-9b89-39a9856c43b5" x1="727.33" x2="727.33" y2="618"/>
      <line class="a5408c27-0fb5-44c1-9b89-39a9856c43b5" x1="745.51" x2="745.51" y2="618"/>
      <line class="a5408c27-0fb5-44c1-9b89-39a9856c43b5" x1="763.69" x2="763.69" y2="618"/>
      <line class="a5408c27-0fb5-44c1-9b89-39a9856c43b5" x1="781.76" x2="781.76" y2="618"/>
      <line class="a5408c27-0fb5-44c1-9b89-39a9856c43b5" x1="799.95" x2="799.95" y2="618"/>
      <line class="a5408c27-0fb5-44c1-9b89-39a9856c43b5" x1="818.13" x2="818.13" y2="618"/>
      <line class="a5408c27-0fb5-44c1-9b89-39a9856c43b5" x1="836.31" x2="836.31" y2="618"/>
      <line class="a5408c27-0fb5-44c1-9b89-39a9856c43b5" x1="854.49" x2="854.49" y2="618"/>
      <line class="a5408c27-0fb5-44c1-9b89-39a9856c43b5" x1="872.67" x2="872.67" y2="618"/>
      <line class="a5408c27-0fb5-44c1-9b89-39a9856c43b5" x1="890.88" x2="890.88" y2="618"/>
      <line class="a5408c27-0fb5-44c1-9b89-39a9856c43b5" x1="909.09" x2="909.09" y2="618"/>
      <line class="a5408c27-0fb5-44c1-9b89-39a9856c43b5" x1="927.27" x2="927.27" y2="618"/>
      <line class="a5408c27-0fb5-44c1-9b89-39a9856c43b5" x1="945.45" x2="945.45" y2="618"/>
      <line class="a5408c27-0fb5-44c1-9b89-39a9856c43b5" x1="963.64" x2="963.64" y2="618"/>
      <line class="a5408c27-0fb5-44c1-9b89-39a9856c43b5" x1="981.82" x2="981.82" y2="618"/>
      <line class="a5408c27-0fb5-44c1-9b89-39a9856c43b5" y1="18.18" x2="1000" y2="18.18"/>
      <line class="a5408c27-0fb5-44c1-9b89-39a9856c43b5" y1="36.35" x2="1000" y2="36.35"/>
      <line class="a5408c27-0fb5-44c1-9b89-39a9856c43b5" y1="54.53" x2="1000" y2="54.53"/>
      <line class="a5408c27-0fb5-44c1-9b89-39a9856c43b5" y1="72.71" x2="1000" y2="72.71"/>
      <line class="a5408c27-0fb5-44c1-9b89-39a9856c43b5" y1="90.88" x2="1000" y2="90.88"/>
      <line class="a5408c27-0fb5-44c1-9b89-39a9856c43b5" y1="109.06" x2="1000" y2="109.06"/>
      <line class="a5408c27-0fb5-44c1-9b89-39a9856c43b5" y1="127.24" x2="1000" y2="127.24"/>
      <line class="a5408c27-0fb5-44c1-9b89-39a9856c43b5" y1="145.41" x2="1000" y2="145.41"/>
      <line class="a5408c27-0fb5-44c1-9b89-39a9856c43b5" y1="163.59" x2="1000" y2="163.59"/>
      <line class="a5408c27-0fb5-44c1-9b89-39a9856c43b5" y1="181.76" x2="1000" y2="181.76"/>
      <line class="a5408c27-0fb5-44c1-9b89-39a9856c43b5" y1="199.94" x2="1000" y2="199.94"/>
      <line class="a5408c27-0fb5-44c1-9b89-39a9856c43b5" y1="218.12" x2="1000" y2="218.12"/>
      <line class="a5408c27-0fb5-44c1-9b89-39a9856c43b5" y1="236.29" x2="1000" y2="236.29"/>
      <line class="a5408c27-0fb5-44c1-9b89-39a9856c43b5" y1="254.47" x2="1000" y2="254.47"/>
      <line class="a5408c27-0fb5-44c1-9b89-39a9856c43b5" y1="272.65" x2="1000" y2="272.65"/>
      <line class="a5408c27-0fb5-44c1-9b89-39a9856c43b5" y1="290.82" x2="1000" y2="290.82"/>
      <line class="a5408c27-0fb5-44c1-9b89-39a9856c43b5" y1="309" x2="1000" y2="309"/>
      <line class="a5408c27-0fb5-44c1-9b89-39a9856c43b5" y1="327.18" x2="1000" y2="327.18"/>
      <line class="a5408c27-0fb5-44c1-9b89-39a9856c43b5" y1="345.35" x2="1000" y2="345.35"/>
      <line class="a5408c27-0fb5-44c1-9b89-39a9856c43b5" y1="363.53" x2="1000" y2="363.53"/>
      <line class="a5408c27-0fb5-44c1-9b89-39a9856c43b5" y1="381.71" x2="1000" y2="381.71"/>
      <line class="a5408c27-0fb5-44c1-9b89-39a9856c43b5" y1="399.88" x2="1000" y2="399.88"/>
      <line class="a5408c27-0fb5-44c1-9b89-39a9856c43b5" y1="418.06" x2="1000" y2="418.06"/>
      <line class="a5408c27-0fb5-44c1-9b89-39a9856c43b5" y1="436.24" x2="1000" y2="436.24"/>
      <line class="a5408c27-0fb5-44c1-9b89-39a9856c43b5" y1="454.41" x2="1000" y2="454.41"/>
      <line class="a5408c27-0fb5-44c1-9b89-39a9856c43b5" y1="472.59" x2="1000" y2="472.59"/>
      <line class="a5408c27-0fb5-44c1-9b89-39a9856c43b5" y1="490.76" x2="1000" y2="490.76"/>
      <line class="a5408c27-0fb5-44c1-9b89-39a9856c43b5" y1="508.94" x2="1000" y2="508.94"/>
      <line class="a5408c27-0fb5-44c1-9b89-39a9856c43b5" y1="527.12" x2="1000" y2="527.12"/>
      <line class="a5408c27-0fb5-44c1-9b89-39a9856c43b5" y1="545.29" x2="1000" y2="545.29"/>
      <line class="a5408c27-0fb5-44c1-9b89-39a9856c43b5" y1="563.47" x2="1000" y2="563.47"/>
      <line class="a5408c27-0fb5-44c1-9b89-39a9856c43b5" y1="581.65" x2="1000" y2="581.65"/>
      <line class="a5408c27-0fb5-44c1-9b89-39a9856c43b5" y1="599.82" x2="1000" y2="599.82"/>
    </g>
    <rect class="ea827e6e-9c24-4080-adcc-40169d2fe62c" width="618.18" height="363.53"/>
    <rect class="ea97f141-18fa-4cef-b5df-bfe5c165b6cb" width="381.82" height="236.29"/>
    <rect class="e2b72de8-a7a1-4d0e-8ef6-cae0f1d99df5" width="236.36" height="145.41"/>
    <rect class="a1f02c60-b965-462b-adda-c2af6de291f1" width="145.45" height="90.88"/>
    <rect class="a1f02c60-b965-462b-adda-c2af6de291f1" width="90.91" height="54.53"/>
  </g>
</svg>
